<svg width="33" height="33" viewBox="0 0 33 33" fill="none" xmlns="http://www.w3.org/2000/svg">
<path d="M22.1939 27.4749C22.6911 27.2489 23.2268 27.0786 23.6689 26.4099C22.9449 26.6606 22.5783 27.0802 22.1939 27.4749ZM16.3675 2.1366C16.9603 2.01018 17.553 1.88507 18.302 1.72672C17.4893 1.60162 16.8872 1.74536 16.3675 2.1366ZM28.0493 22.3065C28.4081 21.4398 28.5619 20.5613 28.453 19.6456C28.3184 20.5326 28.1838 21.4195 28.0493 22.3065ZM18.0657 27.4134C18.9972 27.2033 19.8056 26.7643 20.4786 26.0724C19.6743 26.5194 18.8702 26.9664 18.0657 27.4134ZM7.76369 6.01309C8.47803 5.37566 9.19224 4.73823 9.90645 4.09947C9.02218 4.53728 8.31873 5.18669 7.76369 6.01309ZM9.04935 28.3288C9.96272 29.3163 9.96272 29.3163 10.6464 29.1694C10.2004 28.6891 9.6258 28.5004 9.04935 28.3288ZM6.88724 28.0241C6.26953 27.3446 5.87545 26.4955 5.23993 25.6488C5.38283 26.6422 5.96824 27.4642 6.88724 28.0241ZM16.022 30.9697C15.1149 30.9697 14.2077 30.9697 13.3005 30.9697C14.2204 31.4068 15.1364 31.2335 16.022 30.9697ZM23.337 15.2271C23.3562 16.2413 23.346 17.2356 23.2153 18.2263C23.6792 17.2392 23.6715 16.231 23.337 15.2271ZM4.80715 25.5303C4.89198 24.334 4.07423 23.7834 3.72283 23.001C3.92903 23.8555 4.24249 24.6566 4.80715 25.5303ZM14.7684 29.7743C13.8808 29.6898 13.0231 29.3257 12.1153 29.4923C12.9644 29.9204 13.8607 29.922 14.7684 29.7743ZM16.4025 29.3719C15.4633 29.4253 14.5649 28.7144 13.4376 29.1813C14.519 29.4858 15.4633 29.3869 16.4025 29.3719ZM31.0135 15.5553C31.0802 14.1873 31.0456 12.8312 30.747 11.4918C30.9725 12.842 30.7893 14.2119 31.0135 15.5553ZM12.1899 19.234C12.1143 20.7642 12.6372 21.7762 13.7928 22.2674C12.91 21.37 12.3496 20.4043 12.1899 19.234ZM4.42268 16.7306C4.42434 15.2834 4.75717 13.8785 4.89942 12.453C4.31401 13.8312 4.32464 15.2796 4.42268 16.7306ZM14.6897 2.15389C13.3793 2.31359 11.061 3.46602 10.5221 4.29774C11.8706 3.3183 13.2919 2.80996 14.6897 2.15389ZM17.7644 28.0604C19.2408 28.0584 20.2553 27.3989 21.0007 26.2462C20.045 27.0139 18.9536 27.533 17.7644 28.0604ZM30.2138 10.5297C29.9832 8.82764 29.4808 7.24405 28.353 5.92926C29.0322 7.43701 29.7589 8.92478 30.2138 10.5297ZM18.5992 28.8014C19.8766 28.7656 20.7765 28.0374 21.6684 27.2927C20.629 27.7208 19.4621 27.876 18.5992 28.8014ZM6.63221 26.1585C6.06499 25.2889 5.72154 24.3037 5.18674 23.3481C4.74896 24.8633 5.87109 25.419 6.63221 26.1585ZM29.7038 13.178C29.9268 10.8863 29.0809 8.06779 28.2492 7.4064C29.1745 9.27079 29.5256 11.2017 29.7038 13.178ZM15.0587 28.7629C16.2307 28.9447 17.4388 29.3736 18.5568 28.3133C17.9036 28.3661 17.3382 28.3698 16.7887 28.4678C16.2145 28.5701 15.6089 28.4594 15.0587 28.7629ZM17.4888 32.296C16.5091 32.3831 15.537 32.4634 14.5641 32.4031C13.5954 32.3431 12.6299 32.2293 11.6629 32.1392C13.5935 32.8119 15.5404 32.8831 17.4888 32.296ZM4.79971 23.3683C4.88929 21.5894 4.11088 19.9336 4.03694 18.1681C3.97478 19.9445 4.20481 21.6776 4.79971 23.3683ZM23.2409 27.4513C24.5712 26.727 26.1795 26.3576 26.7434 24.6154C25.6118 25.6061 24.4648 26.5761 23.2409 27.4513ZM25.4721 4.29774C24.7339 3.29435 22.6104 1.99952 21.721 2.05275C22.4656 2.34685 23.0269 2.80729 23.551 3.29036C24.1111 3.80669 24.7172 4.1487 25.4721 4.29774ZM20.4849 29.1129C18.8441 29.2755 17.5437 30.1707 16.0789 30.5604C17.695 30.6562 19.1186 30.1376 20.4849 29.1129ZM30.6432 20.7225C31.6697 18.4995 31.8004 16.1682 31.3378 13.7759C31.4454 16.123 31.1942 18.4307 30.6432 20.7225ZM5.68873 18.6542C6.38461 16.9815 6.95157 15.3842 7.07102 13.492C6.22365 15.1775 5.81124 16.8187 5.68873 18.6542ZM27.7866 16.7363C27.3701 18.827 26.9113 19.7745 25.1555 22.1147C27.5841 19.8035 27.8635 19.3022 27.7866 16.7363ZM28.3479 6.70775C27.3957 4.98043 26.2384 3.46735 24.3866 2.70749C25.0338 3.38883 25.7822 3.97304 26.382 4.69032C26.9894 5.41558 27.8135 5.91595 28.3479 6.70775ZM9.20992 29.1244C8.2303 28.0567 7.26683 26.984 6.00963 26.2612C6.93658 27.384 7.48098 28.9519 9.20992 29.1244ZM1.41436 13.972C0.543923 17.0988 1.1173 20.074 2.34631 22.978C1.30582 20.0535 0.877896 17.0656 1.41436 13.972ZM12.0342 27.5751C13.9786 28.4485 15.8886 28.5034 17.8263 27.0361C16.7716 27.3708 15.8554 27.6318 14.9041 27.6841C13.9535 27.7363 13.0017 27.7568 12.0342 27.5751ZM16.5002 15.9319C15.7273 16.2555 15.225 16.6951 14.9392 17.3835C14.8092 17.6967 14.8667 17.9731 15.1269 18.172C15.4048 18.3847 15.7515 18.5032 16.0687 18.3696C16.3724 18.2417 16.1229 17.9359 16.116 17.7212C16.0971 17.1388 16.2591 16.6074 16.5002 15.9319ZM17.1271 29.8049C16.377 29.6157 15.7153 30.0571 14.9934 30.1298C14.228 30.2068 13.4839 30.1731 12.7222 30.0697C12.0383 29.977 11.4498 29.3097 10.5781 29.6899C12.8228 31.1949 14.9765 30.5185 17.1271 29.8049ZM11.6938 2.28563C9.24312 3.10272 7.15623 4.50135 5.47419 6.53341C7.42613 4.92852 9.5694 3.62837 11.6938 2.28563ZM27.9545 20.7228C27.0612 22.2443 26.2654 23.5983 25.4708 24.9523C27.1625 24.1545 27.8494 22.7234 27.9545 20.7228ZM19.808 12.1704C20.6133 13.0266 21.1853 13.8829 21.5057 14.9079C21.8184 15.9095 21.8965 16.9379 21.8786 17.9829C22.595 15.3935 21.5979 12.4702 19.808 12.1704ZM4.18559 25.1699C3.1442 23.0658 2.73231 20.7888 2.49381 18.4638C2.12101 20.9568 2.4396 23.2597 4.18559 25.1699ZM25.2939 26.8472C23.5792 27.8559 21.6236 28.436 20.1357 29.8705C22.017 29.1688 23.915 28.4977 25.2939 26.8472ZM7.34963 5.4382C5.47497 6.85679 3.95555 8.4018 2.99952 10.4618C4.28825 8.70122 6.18059 7.50487 7.34963 5.4382ZM30.0729 17.9553C30.6611 15.6534 30.7675 13.4873 30.0319 11.2164C29.9972 13.5027 29.8845 15.6751 30.0729 17.9553ZM28.7003 24.2015C26.7075 26.2813 24.9505 28.6291 22.5066 30.235C24.5455 29.3656 27.884 26.1182 28.7003 24.2015ZM30.5355 17.7513C30.1754 18.9024 29.7512 20.0195 29.3308 21.1388C28.9143 22.2465 28.1031 23.1688 27.8763 24.5254C29.5308 22.4804 30.3279 20.2333 30.5355 17.7513ZM28.7644 21.1711C29.9191 19.4588 29.732 17.6715 29.6615 15.9047C28.8874 17.5212 28.7734 19.2551 28.7644 21.1711ZM17.9532 11.7994C15.7989 11.2483 14.2372 12.6926 13.341 15.2543C14.5712 13.5701 16.06 12.3966 17.9532 11.7994ZM16.0511 31.4469C18.7142 31.7913 20.8083 30.7483 22.7513 29.2316C20.6399 30.239 18.3222 30.5845 16.0511 31.4469ZM5.40204 22.8065C6.29477 24.8171 6.9831 26.9861 9.17507 27.977C8.42408 25.8373 6.50213 24.641 5.40204 22.8065ZM17.3773 25.3522C20.1028 24.9715 23.5651 21.0473 23.6677 18.1398C22.14 21.1938 20.6074 24.072 17.3773 25.3522ZM13.5798 28.7249C11.7005 28.2192 10.1913 27.1306 8.49892 26.1491C9.6618 28.7078 11.9721 29.465 13.5798 28.7249ZM26.9292 11.0088C25.8796 7.08168 21.5723 3.19588 19.4966 4.25916C21.2045 4.68234 22.718 5.44353 23.9842 6.70775C25.2337 7.95467 26.1116 9.46241 26.9292 11.0088ZM6.56185 17.3244C5.32835 19.9714 5.63004 22.6023 7.23544 23.8551C6.67104 21.7589 6.49508 19.664 6.56185 17.3244ZM11.9537 11.1764C14.5568 9.35729 17.2961 8.12767 20.6488 9.01794C19.8313 8.50826 19.0739 8.05048 18.2381 8.08108C15.7288 8.17424 13.6549 9.29075 11.9537 11.1764ZM15.7444 0.993473C18.9069 1.24365 21.9145 0.457172 24.8762 1.3235C21.9311 -0.132351 18.9395 0.0872269 15.7444 0.993473ZM4.17867 22.9515C3.42627 19.8873 3.80446 16.7731 3.72078 13.6856C2.48356 16.8533 2.84188 19.9364 4.17867 22.9515ZM20.9136 3.99966C24.0393 4.94849 25.7181 7.21078 26.9382 10.0613C26.9625 9.88294 26.9946 9.80975 26.9766 9.75252C26.4717 8.07843 25.8207 6.47087 24.8146 5.04829C24.5327 4.64774 24.252 4.11543 23.6946 4.09147C22.8398 4.05554 21.9965 3.75746 20.9136 3.99966ZM20.5323 21.4046C21.3468 20.9124 22.1529 20.391 22.5066 19.4503C23.1332 17.7771 23.1768 16.0515 22.8385 14.2969C22.645 13.3007 22.0004 12.7784 21.1045 12.3072C22.9923 14.8968 22.8846 18.7841 20.5323 21.4046ZM21.7159 1.24632C25.4913 2.33754 28.4312 4.17665 29.9332 7.89878C28.7516 3.62838 26.6268 1.3581 21.7159 1.24632ZM22.3323 12.6914C21.6441 11.3854 20.9008 10.4498 19.5744 10.2462C18.4048 10.0679 16.8231 10.6601 16.4066 11.3268C18.3245 11.6302 20.3947 11.3215 22.3323 12.6914ZM8.82648 10.1651C11.1639 7.35583 13.9649 5.48611 17.2289 4.33101C14.3956 3.93178 10.0291 6.98322 8.82648 10.1651ZM16.8222 18.6388C17.8703 19.0344 19.2813 18.0453 19.2632 16.9864C19.2542 16.4498 18.9342 16.1199 18.5263 15.8954C18.0494 15.6329 17.5088 15.5599 17.0123 15.791C16.598 15.9839 16.2548 17.6012 16.4587 18.0616C16.5964 18.3728 16.8136 18.2634 16.9909 18.1613C17.3998 17.9259 17.7866 17.6522 18.0852 17.2572C17.9923 18.0278 17.351 18.2267 16.8222 18.6388ZM14.9432 25.6945C10.9735 24.7366 9.08818 22.0909 8.80021 18.0738C8.09984 22.1149 10.8008 26.582 14.9432 25.6945ZM16.4269 32.0184C12.3429 31.8238 8.73728 30.2634 5.42562 27.8629C8.23697 31.6923 12.1977 32.2386 16.4269 32.0184ZM11.2297 25.3771C7.9194 22.6639 7.94273 19.1115 8.95375 15.3098C8.00847 17.0652 7.37718 18.8812 7.52763 20.9252C7.67642 22.9468 9.4219 25.0636 11.2297 25.3771ZM20.4488 27.3119C23.5972 26.8309 27.1971 22.5466 27.2124 20.3532C26.5101 21.2185 25.8655 22.1158 25.0017 22.6985C23.2037 23.9095 22.2567 25.9488 20.4488 27.3119ZM19.8959 24.6413C25.1132 22.21 26.5281 16.5648 23.2678 11.7952C24.1957 14.0788 24.4776 16.4316 23.9124 18.8431C23.3319 21.3259 21.844 23.1624 19.8959 24.6413ZM6.77753 29.8273C2.93979 26.2748 0.777554 21.9008 0.671442 16.3402C-0.841818 21.3822 2.7004 27.7607 6.77753 29.8273ZM13.7765 13.3464C13.7175 13.3738 13.649 13.3895 13.6016 13.431C13.4748 13.5421 13.3492 13.6571 13.2367 13.7835C12.015 15.1555 11.2071 16.7479 10.8768 18.5854C10.5102 20.6251 11.2714 22.2067 12.9518 22.9506C14.0222 23.4243 15.1161 23.4033 16.2245 23.1289C15.9399 23.0942 15.6536 23.1127 15.37 23.0912C12.6864 22.8887 11.2953 20.8033 12.0592 18.1346C12.5234 16.5132 12.8649 14.8427 13.7765 13.3464ZM4.99131 8.78639C1.30312 11.7896 0.910458 16.6144 1.99491 20.2614C2.36643 16.3937 3.10101 12.4492 4.99131 8.78639ZM14.9354 18.4887C15.1117 19.9151 15.9999 20.7961 17.3375 20.931C18.6033 21.0588 19.7601 20.2631 20.1283 19.011C20.5181 17.6858 19.9213 15.9102 18.828 15.1422C18.3068 14.7761 17.8384 14.8455 17.4487 15.3529C17.5232 15.3641 17.5927 15.3794 17.6629 15.3843C18.8762 15.4712 19.6811 16.2462 19.5511 17.2038C19.4112 18.2326 17.987 19.4172 17.0883 19.0577C16.3959 18.7809 15.6822 18.7434 14.9354 18.4887ZM13.9999 8.55617C9.71768 9.5223 6.02911 15.3235 7.14816 20.9717C7.24376 15.6503 10.4428 11.9386 13.9999 8.55617ZM24.5763 22.1718C28.4671 18.3979 28.1813 13.1493 25.7438 10.189C26.4986 15.9075 26.4422 16.5029 24.5763 22.1718ZM24.5212 8.23546C23.833 7.02314 22.8103 6.27526 21.5351 5.87603C19.2746 5.16806 17.1435 5.65379 15.1184 6.72106C14.0037 7.30792 12.9076 7.96931 12.0737 8.99133C13.2318 8.31929 14.552 8.15029 15.7611 7.68053C18.7863 6.50281 21.6851 6.41898 24.5212 8.23546ZM16.9364 7.6752C17.6391 7.71513 18.342 7.74973 19.0444 7.79497C21.1673 7.93204 22.8782 8.77441 24.0457 10.712C25.0799 12.4276 25.5964 14.2876 25.7912 16.4591C26.0847 14.5971 25.8809 12.9461 25.6823 11.2802C25.4657 9.45842 24.5148 8.34591 22.9064 7.71513C20.92 6.9353 18.9347 6.92332 16.9364 7.6752ZM28.7452 17.1616C29.145 16.4514 29.2181 15.664 29.2668 14.8887C29.4757 11.5384 28.3235 8.57746 26.7344 5.75492C26.2974 4.97776 25.5746 4.61181 24.6685 4.37227C27.4713 8.21018 28.0044 12.7003 28.7452 17.1616ZM22.1798 5.72165C21.4531 5.1308 20.6019 4.85001 19.7325 4.62245C19.068 4.44812 18.4175 4.25117 17.7068 4.4907C14.6642 5.51405 11.9773 7.12294 9.74369 9.51431C8.40716 10.9449 7.39884 12.5342 7.2776 14.5906C7.31913 14.5705 7.37603 14.5618 7.39935 14.5282C7.48188 14.4087 7.57108 14.2884 7.62593 14.1547C8.38871 12.2997 9.68615 10.8517 11.0354 9.45842C12.7416 7.69783 14.708 6.32715 17.047 5.62052C18.7551 5.10419 20.4725 5.16406 22.1798 5.72165ZM6.90275 8.0731C7.75293 7.31058 8.61401 6.57866 9.57645 5.98381C12.5652 4.13672 15.8752 3.76145 19.2609 3.74016C20.3888 3.73351 21.5172 3.74016 22.7244 3.74016C22.0119 2.38545 20.7442 1.72672 19.4398 1.87045C16.2782 2.22044 13.3156 3.23048 10.496 4.7156C9.00821 5.49942 7.91415 6.74368 6.90275 8.0731ZM24.1969 29.7154C28.676 27.4332 31.6607 23.9145 32.527 18.7213C33.3972 13.5075 31.3839 7.27066 29.145 4.97909C30.4202 7.3332 30.7892 9.97875 31.4198 12.5363C31.9234 14.5792 32.0657 16.6646 31.6402 18.7498C31.1417 21.1913 29.7153 23.172 28.4696 25.2183C27.3726 27.0199 25.813 28.4173 24.1969 29.7154ZM14.2248 4.4734C11.8799 4.96179 9.91529 5.86405 8.22633 7.32123C7.18507 8.21949 6.18367 9.21224 5.73653 10.5869C5.01899 12.7922 4.65618 15.0774 4.70616 17.4028C4.72884 18.4597 4.6417 19.5691 5.16009 20.5934C5.39115 20.3383 5.38128 20.0626 5.38077 19.7938C5.37641 17.5988 5.80574 15.511 6.71641 13.5158C7.09216 12.6924 7.61387 11.9634 7.96041 11.1179C8.7774 9.12307 9.97336 7.40639 11.6663 6.06765C12.4111 5.47812 13.258 5.09487 14.2248 4.4734ZM16.9374 12.6492C15.2485 13.1956 13.0966 15.5583 12.6582 17.2539C12.0061 19.7753 13.3214 22.3515 15.5468 22.7438C17.0372 23.0063 19.5305 22.3242 20.6592 20.5753C22.1503 18.2654 21.7684 14.4834 19.7999 12.6126C19.4235 12.2549 18.9979 11.91 18.3994 12.1817C16.6108 12.9939 15.7028 14.5141 15.18 16.3621C15.8413 15.694 16.7993 15.5514 17.4608 14.8588C17.915 14.3833 18.5758 14.558 19.0971 14.9815C19.929 15.6568 20.3397 16.5777 20.5212 17.6253C20.7997 19.2327 19.7983 20.8107 18.2855 21.161C16.7102 21.5256 15.1521 20.6348 14.716 19.1043C14.4598 18.2047 14.5435 17.3132 14.7769 16.4138C15.158 14.9449 15.9518 13.7423 16.9374 12.6492ZM23.865 15.4544C23.7112 13.8455 23.3268 12.463 22.604 11.2084C21.7569 9.74054 20.448 9.05787 18.8008 8.99798C17.1844 8.93943 15.6802 9.37991 14.265 10.1132C12.6991 10.9249 11.1556 11.9114 10.258 13.4709C8.56812 16.4072 8.67783 20.7679 11.1943 23.4163C12.8365 25.1447 15.387 25.8284 17.3117 25.0228C18.1766 24.6607 18.9733 24.1678 19.6911 23.5518C20.7096 22.6776 21.407 21.762 21.5877 21.0866C19.667 22.5939 17.552 23.4953 15.1378 23.6266C12.7156 23.7585 10.1215 22.1863 10.5329 18.9306C10.6949 17.647 11.1153 16.4522 11.7548 15.3394C13.0674 13.0559 15.1211 11.6076 17.2888 10.3846C19.3113 9.24284 21.4288 10.1052 22.4271 12.25C22.8987 13.2621 23.3421 14.2879 23.865 15.4544ZM25.2414 19.373C24.9018 19.3727 24.921 19.6794 24.8505 19.8869C24.4738 21.0024 23.8394 21.9822 23.0487 22.7824C20.3514 25.5165 17.0124 26.4546 13.3191 26.1712C12.0638 26.0748 10.8294 25.8194 9.73665 25.064C9.21108 24.7007 8.79996 24.2373 8.36448 23.7859C7.94016 23.3461 7.78919 22.7294 7.39691 22.168C7.82751 25.1562 10.0096 27.1442 12.9113 27.3869C15.9195 27.6384 18.5757 26.6543 21.102 25.1047C22.4591 24.2722 23.6254 23.2539 24.2866 21.732C24.6237 20.955 24.9223 20.1598 25.2363 19.3719C25.244 19.2503 25.2388 19.1257 25.2619 19.0071C25.877 15.8772 25.2478 13.0119 23.51 10.3993C22.7283 9.22288 21.6172 8.55617 20.2595 8.33527C20.5901 8.6094 20.9777 8.7997 21.3045 9.06851C24.3174 11.549 25.6156 14.7675 25.1581 18.7285C25.1325 18.9526 25.1273 19.1699 25.2414 19.373ZM20.3792 0.0047226C24.5545 -0.115047 27.6533 2.05276 29.8986 5.46349C32.7718 9.82705 33.6228 14.7302 32.5591 19.9093C31.9426 22.9109 30.3804 25.3895 28.171 27.4302C26.4076 29.0596 24.3738 30.1842 22.1516 31.0227C20.4783 31.6541 18.8693 32.4513 17.0948 32.7852C14.3945 33.2934 11.8388 32.8993 9.40178 31.6097C8.49265 31.1285 7.53608 30.7311 6.66604 30.1851C2.75153 27.7287 0.475361 24.1577 0.0345066 19.4226C-0.0676333 18.3257 0.0619314 17.2097 0.357586 16.134C1.67874 11.3281 3.73474 6.99652 7.77753 3.96505C9.49764 2.67555 11.4315 1.86112 13.496 1.38072C14.773 1.08263 15.9829 0.543671 17.2795 0.316113C18.2914 0.136459 19.3009 -0.0218925 20.3792 0.0047226Z" fill="#241500"/>
</svg>
